<svg width="20" height="18" viewBox="0 0 20 18" fill="none" xmlns="http://www.w3.org/2000/svg">
<path d="M18.3375 10.5733L19.9789 3.35108C20.0974 2.82962 19.7011 2.33306 19.1663 2.33306H5.52806L5.20979 0.777159C5.13049 0.389347 4.78924 0.11084 4.39337 0.11084H0.833333C0.37309 0.11084 0 0.48393 0 0.944173V1.49973C0 1.95997 0.37309 2.33306 0.833333 2.33306H3.25983L5.69899 14.2579C5.11545 14.5935 4.72222 15.2227 4.72222 15.9442C4.72222 17.0181 5.59278 17.8886 6.66667 17.8886C7.74056 17.8886 8.61111 17.0181 8.61111 15.9442C8.61111 15.3999 8.38726 14.9082 8.02695 14.5553H15.3064C14.9461 14.9082 14.7222 15.3999 14.7222 15.9442C14.7222 17.0181 15.5928 17.8886 16.6667 17.8886C17.7406 17.8886 18.6111 17.0181 18.6111 15.9442C18.6111 15.1743 18.1636 14.509 17.5146 14.194L17.7062 13.3511C17.8247 12.8296 17.4283 12.3331 16.8936 12.3331H7.57351L7.34625 11.222H17.5249C17.914 11.222 18.2513 10.9527 18.3375 10.5733Z" fill="black"/>
</svg>
