<svg width="23" height="20" viewBox="0 0 23 20" fill="none" xmlns="http://www.w3.org/2000/svg">
<path fill-rule="evenodd" clip-rule="evenodd" d="M3.75 2.75C3.19772 2.75 2.75 3.19771 2.75 3.75L2.75 5.25H20.25V3.75003C20.25 3.19774 19.8023 2.75003 19.25 2.75003L3.75 2.75ZM20.25 7.25H2.75V9.75H20.25V7.25ZM20.25 11.75H2.75L2.75 16.25C2.75 16.8023 3.19771 17.25 3.75 17.25L19.25 17.25C19.8023 17.25 20.25 16.8023 20.25 16.25V11.75ZM0.750001 3.75C0.750001 2.09315 2.09315 0.749995 3.75001 0.75L19.25 0.750029C20.9069 0.750032 22.25 2.09318 22.25 3.75003V16.25C22.25 17.9069 20.9069 19.25 19.25 19.25L3.75 19.25C2.09314 19.25 0.75 17.9069 0.75 16.25L0.750001 3.75Z" fill="white"/>
</svg>
