<svg width="16" height="16" viewBox="0 0 16 16" fill="none" xmlns="http://www.w3.org/2000/svg">
<path fill-rule="evenodd" clip-rule="evenodd" d="M4.83301 2.49992C4.83301 1.57944 5.5792 0.833252 6.49967 0.833252H9.49967C10.4201 0.833252 11.1663 1.57944 11.1663 2.49992V2.83325H14.4997C14.8679 2.83325 15.1663 3.13173 15.1663 3.49992C15.1663 3.86811 14.8679 4.16659 14.4997 4.16659H13.6663V12.4999C13.6663 13.9727 12.4724 15.1666 10.9997 15.1666H4.99967C3.52692 15.1666 2.33301 13.9727 2.33301 12.4999V4.16659H1.49967C1.13148 4.16659 0.833008 3.86811 0.833008 3.49992C0.833008 3.13173 1.13148 2.83325 1.49967 2.83325H4.83301V2.49992ZM6.16634 2.83325H9.83301V2.49992C9.83301 2.31582 9.68377 2.16659 9.49967 2.16659H6.49967C6.31558 2.16659 6.16634 2.31582 6.16634 2.49992V2.83325ZM3.66634 4.16659V12.4999C3.66634 13.2363 4.26329 13.8333 4.99967 13.8333H10.9997C11.7361 13.8333 12.333 13.2363 12.333 12.4999V4.16659H3.66634ZM7.99967 5.33325C8.36786 5.33325 8.66634 5.63173 8.66634 5.99992L8.66634 11.9999C8.66634 12.3681 8.36786 12.6666 7.99968 12.6666C7.63148 12.6666 7.33301 12.3681 7.33301 11.9999L7.33301 5.99992C7.33301 5.63173 7.63148 5.33325 7.99967 5.33325Z" fill="#787A80"/>
</svg>
