<svg width="18" height="18" viewBox="0 0 18 18" fill="none" xmlns="http://www.w3.org/2000/svg">
<path fill-rule="evenodd" clip-rule="evenodd" d="M5.04199 2.12508C5.04199 0.974488 5.97473 0.041748 7.12533 0.041748H10.8753C12.0259 0.041748 12.9587 0.974488 12.9587 2.12508V2.54175H17.1253C17.5856 2.54175 17.9587 2.91484 17.9587 3.37508C17.9587 3.83532 17.5856 4.20842 17.1253 4.20842H16.0837V14.6251C16.0837 16.466 14.5913 17.9584 12.7503 17.9584H5.25033C3.40938 17.9584 1.91699 16.466 1.91699 14.6251V4.20842H0.875326C0.415088 4.20842 0.0419922 3.83532 0.0419922 3.37508C0.0419922 2.91484 0.415088 2.54175 0.875326 2.54175H5.04199V2.12508ZM6.70866 2.54175H11.292V2.12508C11.292 1.89496 11.1054 1.70841 10.8753 1.70841H7.12533C6.89521 1.70841 6.70866 1.89496 6.70866 2.12508V2.54175ZM3.58366 4.20842V14.6251C3.58366 15.5456 4.32985 16.2917 5.25033 16.2917H12.7503C13.6708 16.2917 14.417 15.5456 14.417 14.6251V4.20842H3.58366ZM9.00033 5.66675C9.46056 5.66675 9.83366 6.03984 9.83366 6.50008L9.83366 14.0001C9.83366 14.4603 9.46056 14.8334 9.00033 14.8334C8.54009 14.8334 8.16699 14.4603 8.16699 14.0001L8.16699 6.50008C8.16699 6.03984 8.54009 5.66675 9.00033 5.66675Z" fill="#EF60A3"/>
</svg>
