<svg width="18" height="18" viewBox="0 0 18 18" fill="none" xmlns="http://www.w3.org/2000/svg">
<path d="M17.3164 5.56655C17.2773 4.68098 17.1341 4.07217 16.929 3.54462C16.7174 2.98464 16.3918 2.48329 15.9652 2.06652C15.5484 1.64326 15.0438 1.31437 14.4903 1.10604C13.9597 0.900899 13.354 0.757693 12.4685 0.718648C11.5763 0.676297 11.2931 0.666504 9.03026 0.666504C6.76745 0.666504 6.48422 0.676297 5.59535 0.715342C4.70979 0.754386 4.10097 0.89772 3.57355 1.10274C3.01344 1.31437 2.5121 1.63995 2.09532 2.06652C1.67206 2.48329 1.3433 2.98795 1.13485 3.54144C0.929708 4.07217 0.786501 4.67768 0.747457 5.56324C0.705105 6.45542 0.695312 6.73865 0.695312 9.00146C0.695312 11.2643 0.705105 11.5475 0.74415 12.4364C0.783195 13.3219 0.926528 13.9308 1.13167 14.4583C1.3433 15.0183 1.67206 15.5196 2.09532 15.9364C2.5121 16.3597 3.01675 16.6886 3.57024 16.8969C4.10097 17.102 4.70648 17.2452 5.59217 17.2843C6.48091 17.3235 6.76427 17.3331 9.02708 17.3331C11.2899 17.3331 11.5731 17.3235 12.462 17.2843C13.3476 17.2452 13.9564 17.102 14.4838 16.8969C15.6039 16.4638 16.4894 15.5783 16.9225 14.4583C17.1275 13.9276 17.2708 13.3219 17.3099 12.4364C17.3489 11.5475 17.3587 11.2643 17.3587 9.00146C17.3587 6.73865 17.3554 6.45542 17.3164 5.56655ZM15.8155 12.3713C15.7796 13.1852 15.6429 13.6248 15.529 13.9178C15.2489 14.6439 14.6727 15.2201 13.9466 15.5002C13.6536 15.6141 13.2108 15.7509 12.4001 15.7866C11.521 15.8258 11.2573 15.8354 9.03357 15.8354C6.8098 15.8354 6.54285 15.8258 5.66695 15.7866C4.85299 15.7509 4.41346 15.6141 4.12043 15.5002C3.75911 15.3666 3.43022 15.155 3.16326 14.8783C2.88652 14.608 2.67489 14.2824 2.54135 13.9211C2.42739 13.6281 2.29067 13.1852 2.25494 12.3746C2.21576 11.4955 2.2061 11.2317 2.2061 9.00795C2.2061 6.78418 2.21576 6.51723 2.25494 5.64146C2.29067 4.8275 2.42739 4.38796 2.54135 4.09493C2.67489 3.73348 2.88652 3.40472 3.16657 3.13764C3.4367 2.86089 3.76229 2.64926 4.12374 2.51585C4.41676 2.40189 4.85961 2.26517 5.67026 2.22931C6.54934 2.19026 6.81311 2.18047 9.03675 2.18047C11.2638 2.18047 11.5275 2.19026 12.4034 2.22931C13.2173 2.26517 13.6569 2.40189 13.9499 2.51585C14.3112 2.64926 14.6401 2.86089 14.9071 3.13764C15.1838 3.4079 15.3954 3.73348 15.529 4.09493C15.6429 4.38796 15.7796 4.83068 15.8155 5.64146C15.8546 6.52054 15.8643 6.78418 15.8643 9.00795C15.8643 11.2317 15.8546 11.4922 15.8155 12.3713Z" fill="white"/>
<path d="M9.03026 4.72003C6.66659 4.72003 4.74882 6.63767 4.74882 9.00147C4.74882 11.3653 6.66659 13.2829 9.03026 13.2829C11.3941 13.2829 13.3117 11.3653 13.3117 9.00147C13.3117 6.63767 11.3941 4.72003 9.03026 4.72003ZM9.03026 11.7787C7.49683 11.7787 6.253 10.535 6.253 9.00147C6.253 7.46791 7.49683 6.22421 9.03026 6.22421C10.5638 6.22421 11.8075 7.46791 11.8075 9.00147C11.8075 10.535 10.5638 11.7787 9.03026 11.7787Z" fill="white"/>
<path d="M14.4807 4.55075C14.4807 5.10272 14.0331 5.55028 13.481 5.55028C12.929 5.55028 12.4815 5.10272 12.4815 4.55075C12.4815 3.99866 12.929 3.55123 13.481 3.55123C14.0331 3.55123 14.4807 3.99866 14.4807 4.55075Z" fill="white"/>
</svg>
