<svg width="16" height="20" viewBox="0 0 16 20" fill="none" xmlns="http://www.w3.org/2000/svg">
<path d="M8.25117 0.833252C3.19014 0.834016 0.5 4.05385 0.5 7.56474C0.5 9.19261 1.4162 11.2238 2.8832 11.8678C3.30168 12.0549 3.24629 11.8265 3.60631 10.4592C3.63478 10.3453 3.62016 10.2468 3.52785 10.1406C1.43082 7.73203 3.1186 2.78043 7.95192 2.78043C14.9469 2.78043 13.6399 12.3918 9.16891 12.3918C8.01654 12.3918 7.15803 11.4935 7.42959 10.382C7.75883 9.05816 8.40348 7.63501 8.40348 6.6809C8.40348 4.27615 4.7956 4.63289 4.7956 7.81911C4.7956 8.80378 5.14639 9.46837 5.14639 9.46837C5.14639 9.46837 3.98556 14.1251 3.77017 14.9952C3.40553 16.468 3.8194 18.8521 3.85556 19.0576C3.87787 19.1707 4.00556 19.2066 4.07711 19.1134C4.19173 18.9644 5.59488 16.9767 5.98797 15.5398C6.13106 15.0166 6.71801 12.8929 6.71801 12.8929C7.10495 13.5866 8.2204 14.1671 9.40892 14.1671C12.9445 14.1671 15.5 11.081 15.5 7.25154C15.4877 3.58024 12.3237 0.833252 8.25117 0.833252V0.833252Z" fill="#4F4F4F"/>
</svg>
