<svg width="16" height="16" viewBox="0 0 16 16" fill="none" xmlns="http://www.w3.org/2000/svg">
<path fill-rule="evenodd" clip-rule="evenodd" d="M7.25065 2.16659C4.4432 2.16659 2.16732 4.44247 2.16732 7.24992C2.16732 10.0574 4.4432 12.3333 7.25065 12.3333C8.65324 12.3333 9.92209 11.7661 10.8425 10.847C11.7647 9.92613 12.334 8.65514 12.334 7.24992C12.334 4.44247 10.0581 2.16659 7.25065 2.16659ZM0.833984 7.24992C0.833984 3.70609 3.70682 0.833252 7.25065 0.833252C10.7945 0.833252 13.6673 3.70609 13.6673 7.24992C13.6673 8.78272 13.1292 10.1908 12.2326 11.2941L14.9716 14.0281C15.2322 14.2882 15.2326 14.7103 14.9725 14.9709C14.7124 15.2315 14.2903 15.2319 14.0297 14.9718L11.2893 12.2364C10.1868 13.1303 8.78088 13.6666 7.25065 13.6666C3.70682 13.6666 0.833984 10.7937 0.833984 7.24992Z" fill="white"/>
</svg>
