<svg width="21" height="20" viewBox="0 0 21 20" fill="none" xmlns="http://www.w3.org/2000/svg">
<path d="M10.0436 20C15.5814 20 20.0873 15.5141 20.0873 10C20.0873 9.04826 19.9538 8.11035 19.6896 7.21212C19.5595 6.77043 19.0962 6.51672 18.6514 6.64632C18.2074 6.77551 17.9534 7.23836 18.0831 7.68005C18.302 8.42631 18.4133 9.20715 18.4133 10C18.4133 14.5949 14.6586 18.3333 10.0436 18.3333C5.42866 18.3333 1.67394 14.5949 1.67394 10C1.67394 5.40507 5.42866 1.66667 10.0436 1.66667C11.7208 1.66667 13.3345 2.15495 14.7101 3.07841C15.093 3.33577 15.6137 3.23466 15.8718 2.85339C16.1301 2.47172 16.0293 1.95374 15.646 1.69657C13.9929 0.586751 12.0558 0 10.0436 0C4.50587 0 0 4.48588 0 10C0 15.5141 4.50587 20 10.0436 20Z" fill="#EF60A3"/>
<path d="M19.4415 1.17526L10.0435 10.5321L7.0368 7.5389C6.68014 7.184 6.10234 7.184 5.74568 7.5389C5.38924 7.89401 5.38924 8.46929 5.74568 8.82441L9.39791 12.4608C9.57647 12.6386 9.80963 12.7271 10.0435 12.7271C10.2773 12.7271 10.5105 12.6386 10.689 12.4608L20.7327 2.46077C21.0891 2.10566 21.0891 1.53037 20.7327 1.17526C20.376 0.820368 19.7982 0.820368 19.4415 1.17526Z" fill="#EF60A3"/>
</svg>
